
<svg xmlns="http://www.w3.org/2000/svg" xml:space="preserve" width="850px" height="850px" version="1.1" style="shape-rendering:geometricPrecision; text-rendering:geometricPrecision; image-rendering:optimizeQuality; fill-rule:evenodd; clip-rule:evenodd" viewBox="0 0 850 850" xmlns:xlink="http://www.w3.org/1999/xlink">
 <defs>
  <style type="text/css">
   
    .fil0 {fill:#663333}
    .fil1 {fill:white}
   
  </style>
 </defs>
 <g id="Layer_x0020_1">
  <metadata id="CorelCorpID_0Corel-Layer"></metadata>
  <circle class="fil0" cx="425" cy="425" r="425" id="id_146" style="fill: rgb(242, 242, 242);"></circle>
  <path class="fil1" d="M616 681l-382 0c-4,0 -7,-3 -7,-7l0 -498c0,-4 3,-7 7,-7l229 0c-1,2 -1,5 -1,7l0 123c0,0 0,0 0,0 0,17 16,31 33,32 0,0 0,0 0,0l121 0c3,0 5,-1 7,-2l0 345c0,4 -3,7 -7,7zm-37 -276l-308 0c-4,0 -7,-3 -7,-7 0,-4 3,-7 7,-7l308 0c4,0 7,3 7,7 0,4 -3,7 -7,7zm0 47l-308 0c-4,0 -7,-3 -7,-7 0,-4 3,-7 7,-7l308 0c4,0 7,3 7,7 0,4 -3,7 -7,7zm0 47l-308 0c-4,0 -7,-3 -7,-7 0,-4 3,-7 7,-7l308 0c4,0 7,3 7,7 0,4 -3,7 -7,7zm0 48l-308 0c-4,0 -7,-3 -7,-7 0,-4 3,-7 7,-7l308 0c4,0 7,3 7,7 0,4 -3,7 -7,7zm0 47l-308 0c-4,0 -7,-3 -7,-7 0,-4 3,-7 7,-7l308 0c4,0 7,3 7,7 0,4 -3,7 -7,7zm-154 47l-154 0c-4,0 -7,-3 -7,-7 0,-4 3,-7 7,-7l154 0c4,0 7,3 7,7 0,4 -3,7 -7,7zm-84 -341c-21,0 -37,-17 -37,-37 0,-21 16,-38 37,-38 21,0 38,17 38,38 0,20 -17,37 -38,37zm0 -61c-13,0 -23,11 -23,24 0,13 10,23 23,23 13,0 24,-10 24,-23 0,-13 -11,-24 -24,-24zm62 112c-8,-17 -23,-29 -41,-35 -12,8 -29,8 -41,0 -18,6 -33,18 -41,35l123 0zm-127 -20c11,-14 27,-24 44,-29 2,-1 5,0 6,1 9,7 22,7 30,0 2,-1 4,-2 6,-1 18,5 34,15 45,29l0 -113 -131 0 0 113zm145 26c0,3 -1,6 -4,7 -1,1 -2,1 -3,1l-1 0 0 0 -144 0c-4,0 -7,-3 -7,-7l0 -147c0,-4 3,-7 7,-7l145 0c3,0 7,3 7,7l0 146zm82 -67l64 0 -64 -65 0 65z" id="id_147" style="fill: rgb(3, 3, 3);"></path>
  <path class="fil1" d="M616 317l-121 0c0,0 0,0 0,0 -10,0 -19,-9 -20,-18 0,0 0,0 0,0l0 -123c0,-3 2,-5 5,-6 2,-1 5,-1 7,1l134 134c2,2 3,5 1,8 -1,2 -3,4 -6,4zm-127 -19c1,2 3,5 6,5l104 0 -110 -110 0 105z" id="id_148" style="fill: rgb(3, 3, 3);"></path>
 </g>
</svg>