
<svg xmlns="http://www.w3.org/2000/svg" viewBox="0 0 64 64"><g id="IP_6-7" data-name="IP 6-7"><rect x="18.92" y="11" width="26.17" height="40.5" id="id_118" style="fill: rgb(239, 68, 68);"></rect><circle cx="32" cy="56.04" r="2" id="id_119" style="fill: rgb(74, 74, 74);"></circle><path d="M41.58,4.5H22.42A4.93,4.93,0,0,0,17.5,9.42V54.58a4.93,4.93,0,0,0,4.92,4.92H41.58a4.93,4.93,0,0,0,4.92-4.92V9.42A4.93,4.93,0,0,0,41.58,4.5ZM29,7h6a.5.5,0,0,1,0,1H29a.5.5,0,0,1,0-1ZM27.27,7h.17a.5.5,0,0,1,0,1h-.17a.5.5,0,1,1,0-1ZM32,59a3,3,0,1,1,3-3A3,3,0,0,1,32,59ZM46.08,10.5V52a.5.5,0,0,1-.5.5H18.42a.5.5,0,0,1-.5-.5V10.5a.5.5,0,0,1,.5-.5H45.58A.5.5,0,0,1,46.08,10.5Z" id="id_120" style="fill: rgb(74, 74, 74);"></path></g></svg>