
<svg xmlns="http://www.w3.org/2000/svg" xml:space="preserve" width="1.70666in" height="1.70666in" version="1.1" style="shape-rendering:geometricPrecision; text-rendering:geometricPrecision; image-rendering:optimizeQuality; fill-rule:evenodd; clip-rule:evenodd" viewBox="0 0 1707 1707" xmlns:xlink="http://www.w3.org/1999/xlink">
 <defs>
  <style type="text/css">
   
    .fil0 {fill:black}
   
  </style>
 </defs>
 <g id="Layer_x0020_1">
  <metadata id="CorelCorpID_0Corel-Layer"></metadata>
  <path class="fil0" d="M779 1022l0 -358c0,-13 10,-23 23,-23l82 0c58,0 105,47 105,105 0,58 -47,105 -105,105l-60 0 0 171c0,30 -45,30 -45,0zm591 269l-1034 0c-185,0 -336,-151 -336,-336l0 -203c0,-186 151,-337 336,-337l1034 0c186,0 337,151 337,337l0 203c0,185 -151,336 -337,336zm-1034 -830c-160,0 -290,130 -290,291l0 203c0,160 130,291 290,291l1034 0c161,0 291,-131 291,-291l0 -203c0,-161 -130,-291 -291,-291l-1034 0zm880 548c-12,0 -23,-10 -23,-23l0 -286c0,-21 25,-31 39,-17l143 144c9,9 9,23 0,32l-143 143c-4,5 -10,7 -16,7zm23 -255l0 177 88 -88 -88 -89zm167 255c-13,0 -23,-10 -23,-23l0 -286c0,-30 45,-30 45,0l0 286c0,13 -10,23 -22,23zm-95 111c-153,0 -277,-124 -277,-277 0,-153 124,-277 277,-277 153,0 277,124 277,277 0,153 -124,277 -277,277zm0 -509c-128,0 -232,104 -232,232 0,128 104,231 232,231 127,0 231,-103 231,-231 0,-128 -104,-232 -231,-232zm-1054 433c-103,0 -141,-135 -89,-135 13,0 23,10 23,23 0,87 133,87 133,0 0,-37 -30,-67 -67,-67 -61,0 -112,-50 -112,-112 0,-62 51,-112 112,-112 103,0 142,135 90,135 -13,0 -23,-10 -23,-23 0,-88 -133,-88 -133,0 0,37 30,67 66,67 62,0 112,50 112,112 0,61 -50,112 -112,112zm319 -11l-84 -145 -31 29 0 105c0,30 -45,30 -45,0l0 -358c0,-30 45,-30 45,0l0 190 102 -97c22,-21 53,12 32,33l-69 65 90 156c15,26 -25,48 -40,22zm106 -11l0 -358c0,-30 45,-30 45,0l0 358c0,30 -45,30 -45,0zm142 -216l60 0c79,0 79,-120 0,-120l-60 0 0 120z" id="id_101" style="fill: rgb(3, 3, 3);"></path>
 </g>
</svg>